<?xml version="1.0" encoding="UTF-8" standalone="no"?>
<!-- Created with Inkscape (http://www.inkscape.org/) -->

<svg
   width="80"
   height="80"
   viewBox="0 0 21.166666 21.166667"
   version="1.1"
   id="svg5"
   xml:space="preserve"
   xmlns="http://www.w3.org/2000/svg"
   xmlns:svg="http://www.w3.org/2000/svg"><defs
     id="defs2" /><g
     id="layer1"><path
       id="rect354"
       style="opacity:1;fill:#000000;fill-opacity:1;fill-rule:evenodd;stroke-width:0.264582"
       d="m 17.044889,1.9643331 c 0.01139,7.66e-5 0.02258,0.0012 0.03401,0.00196 h 2.291863 c 0.315786,0 0.570348,0.2545613 0.570348,0.570349 0,0.3157876 -0.254562,0.5696949 -0.570348,0.5696949 H 17.5047 L 15.106879,14.48781 c -0.02547,0.273844 -0.24234,0.490425 -0.516715,0.5141 -0.0062,5.77e-4 -0.01272,2.79e-4 -0.01897,6.53e-4 -0.01038,5.58e-4 -0.02087,0.002 -0.0314,0.002 -0.0022,1e-5 -0.0043,1.4e-5 -0.0066,0 H 4.3748999 c -0.3157878,0 -0.5703484,-0.254562 -0.5703484,-0.57035 0,-0.315788 0.2545606,-0.569695 0.5703484,-0.569695 h 9.6985481 l 0.438881,-2.083212 H 3.9307864 c -0.2248736,0 -0.4179616,-0.129619 -0.5108287,-0.317878 -0.018325,-0.03097 -0.034489,-0.06398 -0.047093,-0.09942 L 1.2602184,5.4224009 c -0.025677,-0.072201 -0.036354,-0.1464257 -0.033358,-0.2191135 -2.392e-4,-0.00682 -0.0013,-0.013399 -0.0013,-0.020276 0,-0.3157876 0.2545619,-0.5696949 0.5703483,-0.5696949 H 15.628173 c 0.139492,0 0.266763,0.049518 0.365625,0.1321221 l 0.490553,-2.3278349 c 0.05696,-0.2703813 0.294992,-0.4550636 0.560538,-0.4532706 z m -1.258431,3.7661348 c -0.05025,0.01441 -0.103282,0.022893 -0.158285,0.022893 H 2.5919059 L 4.3304231,10.641225 H 14.752374 Z M 13.309496,16.716226 a 1.2431927,1.2431927 0 0 1 1.243387,1.242733 1.2431927,1.2431927 0 0 1 -1.243387,1.243387 1.2431927,1.2431927 0 0 1 -1.242734,-1.243387 1.2431927,1.2431927 0 0 1 1.242734,-1.242733 z m -7.222241,0 a 1.2431927,1.2431927 0 0 1 1.243387,1.242733 1.2431927,1.2431927 0 0 1 -1.243387,1.243387 1.2431927,1.2431927 0 0 1 -1.243387,-1.243387 1.2431927,1.2431927 0 0 1 1.243387,-1.242733 z" /></g></svg>
