<?xml version="1.0" encoding="utf-8"?>
<!-- Svg Vector Icons : http://www.onlinewebfonts.com/icon -->
<!DOCTYPE svg PUBLIC "-//W3C//DTD SVG 1.1//EN" "http://www.w3.org/Graphics/SVG/1.1/DTD/svg11.dtd">
<svg version="1.1" xmlns="http://www.w3.org/2000/svg" xmlns:xlink="http://www.w3.org/1999/xlink" x="0px" y="0px" viewBox="0 0 1000 1000" enable-background="new 0 0 1000 1000" xml:space="preserve">
<metadata> Svg Vector Icons : http://www.onlinewebfonts.com/icon </metadata>
<g><path d="M897.3,245.1c0-27.4-22.2-49.7-49.7-49.7H744.4C707.3,84.1,617.2,10,516.5,10c-100.6,0-190.9,74.1-228,185.5H152.4c-27.4,0-49.7,22.2-49.7,49.7L53.1,940.3c0,27.4,22.2,49.7,49.6,49.7h794.5c27.4,0,49.6-22.2,49.6-49.7L897.3,245.1z M516.5,54.5c77.1,0,147.2,55.7,180.7,141H335.8C369.2,110.3,439.4,54.5,516.5,54.5z M897.3,945.5H102.7c-2.6,0-4.7-1.9-5.1-4.4l49.5-692.8l0.1-1.6v-1.6c0-2.8,2.3-5.2,5.2-5.2h695.2c2.8,0,5.2,2.3,5.2,5.2v1.6l0.1,1.6l49.5,692.8C902,943.6,899.8,945.5,897.3,945.5z"/><path d="M243.4,344.5c0,27.4,22.2,49.7,49.7,49.7c27.4,0,49.7-22.2,49.7-49.7c0-27.4-22.2-49.7-49.7-49.7C265.6,294.8,243.4,317,243.4,344.5L243.4,344.5L243.4,344.5z"/><path d="M690.3,344.5c0,27.4,22.2,49.7,49.7,49.7c27.4,0,49.7-22.2,49.7-49.7l0,0c0-27.4-22.2-49.7-49.7-49.7C712.5,294.8,690.3,317,690.3,344.5L690.3,344.5z"/></g>
</svg>